# xmcd
#
# Track frame offsets: 
#        150
#        49435
#        67445
#        111001
#        144091
#        181616
#        197771
#        215688
#        222993
#        252709
#        281612
#        290376
#        305134
#        324848
#
# Disc length: 4710 seconds
#
# Revision: 0
# Processed by: cddbd v1.5.2PL0 Copyright (c) Steve Scherf et al.
# Submitted via: ExactAudioCopy v1.0b4
#
DISCID=e712640e
DTITLE=Lucky Peterson - July 28th 2014 (Live In Marciac)
DYEAR=2015
DGENRE=Blues
TTITLE0=Boogie Thang (Live)
TTITLE1=Funky Broadway (Live)
TTITLE2=I Can See Clearly Now (Live)
TTITLE3=It Ain't Safe (Live)
TTITLE4=Trouble (Live)
TTITLE5=Lock Out Of Love (Live)
TTITLE6=Make My Move On You (Live)
TTITLE7=Triubte To Steve Ray Vaughan (Live)
TTITLE8=Nana Jarnell (Live)
TTITLE9=I'm Still Here (Live)
TTITLE10=Goin' Down Slow (I've Had My Fun) (Live)
TTITLE11=Jody's Got Your Girl And Gone (Live)
TTITLE12=Boogie Woogie Blues Party (Live)
TTITLE13=Johnny B. Goode 'Encore' (Feat. Joe Satriani) (Live)
EXTD=
EXTT0=
EXTT1=
EXTT2=
EXTT3=
EXTT4=
EXTT5=
EXTT6=
EXTT7=
EXTT8=
EXTT9=
EXTT10=
EXTT11=
EXTT12=
EXTT13=
PLAYORDER=
